<svg xmlns="http://www.w3.org/2000/svg" viewBox="0 0 309.95 309.95"><defs><style>.cls-1{fill:#fff;}</style></defs><title>Asset 7</title><g id="Layer_2" data-name="Layer 2"><g id="Layer_1-2" data-name="Layer 1"><circle cx="154.97" cy="154.97" r="154.97"/><path class="cls-1" d="M92.43,147H87.5l-6-20.35H58.69L52.55,147H47.72L70,77.41ZM59.62,123H80.53L70,89.3Z"/><path class="cls-1" d="M109.25,80.1H126a17.63,17.63,0,0,1,16,9.48c2.23,4.09,4.09,11.81,4.09,24,0,17-4.19,24.26-5.39,26-3.07,4.37-7.81,7.44-16,7.44H109.25Zm4.37,63.2h8.27c7.35,0,13.48-1,16.73-8.55,2.6-5.95,2.79-14.78,2.79-21.19s-.19-16.08-3.07-21.84c-3.53-7.06-9.38-7.9-16.45-7.9h-8.27Z"/><path class="cls-1" d="M204,147H199l-6-20.35H170.23L164.09,147h-4.83l22.31-69.61ZM171.15,123h20.92L181.57,89.3Z"/><path class="cls-1" d="M252.48,80.1h4.84V147H253V88.93h-.19l-15.52,37.18L221.72,88.93l-.19.19V147h-4.37V80.1H222l15.24,36.81Z"/><path class="cls-1" d="M53.11,230.49V163.57H69.47c9.76,0,16.54,6.13,16.54,16.36,0,7.34-4.18,12.27-10.68,15.15C84,197.59,89,203.81,89,212.83c0,9.57-6.14,17.66-16.73,17.66Zm11.16-36.71c11.43,0,17.38-5.58,17.38-14.13,0-7.16-3.07-12.36-14.22-12.36h-10v26.49Zm7.24,33c5.49,0,13.11-4,13.11-13.76,0-8.08-5.67-15.52-15.61-15.52H57.48v29.28Z"/><path class="cls-1" d="M143.18,163.57v49.72c0,13.2-10,18.5-17.48,18.5-9.2,0-17.66-7.62-17.66-17.47V163.57h4.37v47.49c0,12.74,6,17,13.29,17,7.62,0,13.11-4.65,13.11-15.52v-49Z"/><path class="cls-1" d="M196.25,173.05c-4.18-3.63-8.92-7.06-14.68-7.06-6.79,0-12.37,4.64-12.37,11.71,0,5.2,2.33,8.64,10.51,13.66l5.48,3.35c10.59,6.41,15.43,10.22,15.43,18.49,0,11.52-7.53,18.59-19,18.59-7.9,0-14.13-3.72-18.87-9.85l3.35-2.7c3.53,5.11,9.1,8.83,15.52,8.83,7.8,0,14.31-5.76,14.31-13.75,0-6.32-.74-8.74-13.1-16.08l-6.23-3.72c-6.41-3.81-12.08-8.27-12.08-16.36,0-10,7.62-15.89,17.28-15.89,6.32,0,12.46,3.34,17,7.53Z"/><path class="cls-1" d="M252,173.05c-4.18-3.63-8.92-7.06-14.69-7.06-6.78,0-12.36,4.64-12.36,11.71,0,5.2,2.33,8.64,10.5,13.66l5.49,3.35c10.59,6.41,15.43,10.22,15.43,18.49,0,11.52-7.53,18.59-19,18.59-7.9,0-14.13-3.72-18.87-9.85l3.34-2.7c3.54,5.11,9.11,8.83,15.53,8.83,7.8,0,14.31-5.76,14.31-13.75,0-6.32-.74-8.74-13.11-16.08l-6.22-3.72c-6.42-3.81-12.09-8.27-12.09-16.36,0-10,7.63-15.89,17.29-15.89,6.32,0,12.46,3.34,17,7.53Z"/></g></g></svg>