<svg xmlns="http://www.w3.org/2000/svg" xmlns:xlink="http://www.w3.org/1999/xlink" viewBox="0 0 349.43 281.49"><defs><style>.cls-1{fill:none;}.cls-2{fill:#fff;}.cls-3{isolation:isolate;}.cls-4{clip-path:url(#clip-path);}.cls-5{fill:#070001;}.cls-6{fill:#0a0102;}.cls-7{clip-path:url(#clip-path-2);}.cls-8{fill:#050001;}.cls-9{fill:#b70a20;}.cls-10{clip-path:url(#clip-path-3);}.cls-11{clip-path:url(#clip-path-4);}.cls-12{clip-path:url(#clip-path-5);}.cls-13{clip-path:url(#clip-path-6);}.cls-14{clip-path:url(#clip-path-7);}.cls-15{fill:#bb0a21;}.cls-16{fill:#231f20;}</style><clipPath id="clip-path"><path class="cls-1" d="M286,121.5l-17.26,22.15q5.72-7.32.27-19.48-8-17.79-28.22-15a52.19,52.19,0,0,0-5.57,1.11l17.26-22.15a52.19,52.19,0,0,1,5.57-1.11q20.25-2.85,28.22,15Q291.73,114.17,286,121.5Z"/></clipPath><clipPath id="clip-path-2"><path class="cls-1" d="M313.12,142.84,295.86,165q-8.6,11-25.31,15.3c-1.76.44-4.66,1.08-8.72,1.9L279.09,160c4.06-.82,7-1.45,8.72-1.9Q304.52,153.88,313.12,142.84Z"/></clipPath><clipPath id="clip-path-3"><path class="cls-1" d="M156.8,131.71l17.27-22.15c.87-1.13,2.55-2,5-2.64l-17.26,22.15C159.36,129.71,157.68,130.58,156.8,131.71Z"/></clipPath><clipPath id="clip-path-4"><path class="cls-1" d="M169.08,164.07l17.27-22.16c.76-1,2.36-1.79,4.82-2.41L173.9,161.65C171.45,162.28,169.85,163.09,169.08,164.07Z"/></clipPath><clipPath id="clip-path-5"><path class="cls-1" d="M125.91,112l17.26-22.16a20,20,0,0,0-2.39,4q-4.49,9.84,1.87,24L125.39,140q-6.36-14.18-1.87-24A19.41,19.41,0,0,1,125.91,112Z"/></clipPath><clipPath id="clip-path-6"><path class="cls-1" d="M206.34,178.29l-17.26,22.16a58,58,0,0,1-6.25,1.24q-12.11,1.71-21.63-2.78-11.92-5.61-18.49-20.28L160,156.47q6.57,14.68,18.49,20.29,9.53,4.49,21.63,2.78A58,58,0,0,0,206.34,178.29Z"/></clipPath><clipPath id="clip-path-7"><path class="cls-1" d="M103.76,139.18,86.5,161.33c1.4-1.8,1.43-4.22.07-7.26q-2.7-6-10.86-4.88a26.84,26.84,0,0,0-2.78.56L90.19,127.6A24.89,24.89,0,0,1,93,127q8.16-1.16,10.86,4.88Q105.87,136.46,103.76,139.18Z"/></clipPath></defs><title>Asset 2</title><g id="Layer_2" data-name="Layer 2"><g id="Layer_1-2" data-name="Layer 1"><polygon class="cls-2" points="349.43 10.41 0 93.89 0 270.94 349.43 187.46 349.43 10.41"/><g class="cls-3"><g class="cls-3"><g class="cls-4"><g class="cls-3"><path class="cls-5" d="M286,121.5l-17.26,22.15q5.72-7.32.27-19.48-8-17.79-28.22-15a52.19,52.19,0,0,0-5.57,1.11l17.26-22.15a52.19,52.19,0,0,1,5.57-1.11q20.25-2.85,28.22,15,5.45,12.15-.27,19.48"/></g></g></g><polygon class="cls-6" points="252.49 88.18 235.23 110.33 225.52 112.82 242.78 90.67 252.49 88.18"/><g class="cls-3"><g class="cls-7"><g class="cls-3"><path class="cls-5" d="M313.12,142.84,295.86,165q-8.6,11-25.31,15.3c-1.76.44-4.66,1.08-8.72,1.9L279.09,160c4.06-.82,7-1.45,8.72-1.9q16.71-4.26,25.31-15.3"/></g></g></g><polygon class="cls-8" points="279.09 160.04 261.83 182.2 248.85 153.24 266.11 131.08 279.09 160.04"/><path class="cls-9" d="M249,58.08q18.51-2.59,33.56,3.58,22.71,9.42,33.2,32.83,10.05,22.4,2.2,40.18t-30.17,23.47c-1.76.45-4.66,1.08-8.72,1.9l-13-29,4.61-1.18q25.17-6.42,15.56-27.88-8-17.79-28.22-15a52.19,52.19,0,0,0-5.57,1.11l-9.71,2.49L274.29,161l-28.8,7.36-44.2-98.62,37.51-9.57A95.67,95.67,0,0,1,249,58.08Z"/><polygon class="cls-6" points="274.29 160.95 257.03 183.11 228.23 190.46 245.49 168.31 274.29 160.95"/><polygon class="cls-8" points="245.49 168.31 228.23 190.46 184.03 91.85 201.29 69.69 245.49 168.31"/></g><g class="cls-3"><polygon class="cls-6" points="197.46 102.23 180.19 124.39 161.83 129.07 179.09 106.92 197.46 102.23"/><g class="cls-3"><g class="cls-10"><g class="cls-3"><path class="cls-5" d="M179.09,106.92l-17.26,22.15c-2.47.64-4.15,1.51-5,2.64l17.27-22.15c.87-1.13,2.55-2,5-2.64"/></g></g></g><polygon class="cls-6" points="209.96 134.7 192.69 156.85 173.9 161.65 191.16 139.5 209.96 134.7"/><g class="cls-3"><g class="cls-11"><g class="cls-3"><path class="cls-5" d="M191.17,139.5,173.9,161.65c-2.45.63-4.05,1.44-4.82,2.42l17.27-22.16c.76-1,2.36-1.79,4.82-2.41"/></g></g></g><g class="cls-3"><g class="cls-12"><g class="cls-3"><path class="cls-5" d="M142.65,117.83,125.39,140q-6.36-14.18-1.87-24a19.41,19.41,0,0,1,2.39-4l17.26-22.16a20,20,0,0,0-2.39,4q-4.49,9.84,1.87,24"/></g></g></g><polygon class="cls-6" points="228.96 172.52 211.7 194.67 189.08 200.45 206.34 178.29 228.96 172.52"/><polygon class="cls-8" points="159.97 156.47 142.71 178.63 125.39 139.99 142.65 117.83 159.97 156.47"/><path class="cls-9" d="M184.76,73.91l12.7,28.32-18.37,4.69q-7.46,1.9-5.25,6.81a5.86,5.86,0,0,0,3.58,3.56,9.64,9.64,0,0,0,3.94.09,28.08,28.08,0,0,0,2.87-.58l15.89-4.06,9.84,22-18.79,4.8c-2.56.65-4.19,1.5-4.92,2.54s-.66,2.48.16,4.31q1.4,3.1,3.46,3.66a9.23,9.23,0,0,0,3.53,0,33.7,33.7,0,0,0,3.57-.74l19.37-4.95L229,172.52l-22.62,5.77a58,58,0,0,1-6.25,1.25q-12.1,1.69-21.63-2.78-11.93-5.62-18.49-20.29l-17.32-38.64q-6.36-14.16-1.87-24T159.73,80.3Z"/><g class="cls-3"><g class="cls-13"><g class="cls-3"><path class="cls-5" d="M206.34,178.29l-17.26,22.16a58,58,0,0,1-6.25,1.24q-12.11,1.71-21.63-2.78-11.92-5.61-18.49-20.28L160,156.47q6.57,14.68,18.49,20.29,9.53,4.49,21.63,2.78a58,58,0,0,0,6.25-1.25"/></g></g></g><g class="cls-3"><g class="cls-14"><g class="cls-3"><path class="cls-5" d="M103.76,139.18,86.5,161.33c1.4-1.8,1.43-4.22.07-7.26q-2.7-6-10.86-4.88a26.84,26.84,0,0,0-2.78.56L90.19,127.6A24.89,24.89,0,0,1,93,127q8.16-1.16,10.86,4.88,2,4.54-.07,7.26"/></g></g></g><polygon class="cls-6" points="90.19 127.6 72.93 149.75 67.82 151.05 85.08 128.9 90.19 127.6"/><polygon class="cls-8" points="107.41 168.12 90.15 190.27 78.78 164.92 96.04 142.76 107.41 168.12"/><polygon class="cls-6" points="165.84 188.63 148.58 210.78 118.37 218.49 135.63 196.34 165.84 188.63"/><polygon class="cls-6" points="135.63 196.34 118.37 218.49 90.15 190.27 107.41 168.12 135.63 196.34"/><path class="cls-9" d="M87.78,99q13-1.83,23.57,3.13a42.3,42.3,0,0,1,21.21,21.56q6.69,14.94-1.54,28.48l34.82,36.44-30.21,7.71-28.22-28.22L96,142.76l2.27-.58q9.07-2.31,5.52-10.26-2.7-6-10.86-4.88a24.89,24.89,0,0,0-2.78.56l-5.11,1.3L117.41,201l-28.8,7.35-44.2-98.6,37-9.44A60.21,60.21,0,0,1,87.78,99Z"/><polygon class="cls-6" points="117.41 200.99 100.15 223.14 71.35 230.5 88.61 208.34 117.41 200.99"/><polygon class="cls-8" points="88.61 208.34 71.35 230.5 27.15 131.89 44.41 109.74 88.61 208.34"/></g><polygon class="cls-15" points="349.43 187.46 0 270.94 0 281.49 349.43 198.64 349.43 187.46"/><polygon class="cls-15" points="349.43 0 0 83.48 0 94.03 349.43 11.19 349.43 0"/><line class="cls-16" y1="93.89" x2="349.43" y2="10.41"/><polygon class="cls-16" points="0 95.35 0 92.35 349.43 8.87 349.43 11.95 0 95.35"/><line class="cls-16" y1="270.94" x2="349.43" y2="187.46"/><polygon class="cls-16" points="0 272.49 0 269.4 349.43 185.92 349.43 189 0 272.49"/></g></g></svg>